<?xml version="1.0" encoding="UTF-8"?>
<svg width="300" height="300" viewBox="0 0 300 300" xmlns="http://www.w3.org/2000/svg">
  <circle cx="150" cy="150" r="150" fill="#f0f4f8"/>
  <g fill="#94a3b8">
    <ellipse cx="150" cy="180" rx="80" ry="60"/>
    <circle cx="220" cy="140" r="45"/>
    <path d="M240 110 Q255 70 265 105 Q270 120 240 125 Z"/>
    <path d="M200 105 Q215 70 185 85 Q175 95 195 120 Z"/>
    <path d="M70 170 Q40 140 60 120 Q70 110 80 140 Z"/>
    <rect x="110" y="220" width="20" height="40" rx="10"/>
    <rect x="170" y="220" width="20" height="40" rx="10"/>
    <rect x="90" y="220" width="20" height="30" rx="10"/>
    <rect x="190" y="220" width="20" height="30" rx="10"/>
    <circle cx="235" cy="130" r="5"/>
    <ellipse cx="220" cy="155" rx="10" ry="5"/>
  </g>
</svg>
